<?xml version="1.0" standalone="no"?>
<!DOCTYPE svg PUBLIC "-//W3C//DTD SVG 20010904//EN"
 "http://www.w3.org/TR/2001/REC-SVG-20010904/DTD/svg10.dtd">
<svg version="1.0" xmlns="http://www.w3.org/2000/svg"
 width="465.000000pt" height="467.000000pt" viewBox="0 0 465.000000 467.000000"
 preserveAspectRatio="xMidYMid meet">

<g transform="translate(0.000000,467.000000) scale(0.100000,-0.100000)"
fill="#000000" stroke="none">
<path d="M2140 4614 c-14 -2 -65 -9 -115 -15 -194 -23 -432 -90 -626 -175
-656 -286 -1149 -876 -1315 -1572 -48 -203 -59 -302 -58 -542 0 -302 29 -476
124 -756 231 -676 807 -1232 1493 -1440 246 -75 417 -99 692 -98 180 0 243 4
350 22 198 34 385 87 487 138 26 13 77 35 114 49 260 98 621 378 839 650 194
242 357 570 435 875 49 190 64 325 64 560 1 168 -4 253 -17 335 -40 249 -111
475 -217 690 -332 674 -971 1141 -1725 1261 -94 14 -469 28 -525 18z m1986
-3316 c13 -21 24 -40 24 -43 0 -3 -822 -5 -1826 -5 -1553 0 -1825 2 -1821 14
3 7 389 666 858 1462 468 797 876 1491 906 1542 l55 93 889 -1513 c490 -832
901 -1530 915 -1550z"/>
<path d="M2297 4078 l-25 -43 45 -3 c25 -2 47 -1 49 1 3 2 -6 23 -19 46 l-24
42 -26 -43z"/>
<path d="M2225 3920 c11 -5 27 -9 35 -9 9 0 8 4 -5 9 -11 5 -27 9 -35 9 -9 0
-8 -4 5 -9z"/>
<path d="M2390 3920 l-25 -8 27 -1 c15 -1 30 4 33 9 7 11 0 11 -35 0z"/>
<path d="M2200 3900 c8 -5 26 -9 40 -9 l25 1 -25 8 c-14 4 -32 8 -40 9 -13 1
-13 0 0 -9z"/>
<path d="M2415 3902 c-11 -2 -24 -8 -30 -14 -9 -9 43 -1 54 8 8 7 -4 10 -24 6z"/>
<path d="M2200 3876 c0 -2 9 -6 20 -9 11 -3 20 -1 20 4 0 5 -9 9 -20 9 -11 0
-20 -2 -20 -4z"/>
<path d="M2405 3870 c-25 -11 1 -11 35 0 20 6 21 8 5 8 -11 0 -29 -3 -40 -8z"/>
<path d="M2170 3859 c0 -5 6 -9 14 -9 8 0 22 -3 32 -7 11 -4 15 -3 11 4 -8 13
-57 23 -57 12z"/>
<path d="M2425 3850 c-13 -5 -14 -9 -5 -9 8 0 24 4 35 9 13 5 14 9 5 9 -8 0
-24 -4 -35 -9z"/>
<path d="M2170 3830 c14 -4 32 -8 40 -9 13 -1 13 0 0 9 -8 5 -26 9 -40 9 l-25
-1 25 -8z"/>
<path d="M2443 3833 c-13 -2 -23 -8 -23 -12 0 -11 49 -1 56 10 3 5 2 8 -3 8
-4 -1 -18 -4 -30 -6z"/>
<path d="M2160 3810 c34 -11 60 -11 35 0 -11 5 -29 8 -40 8 -16 0 -15 -2 5 -8z"/>
<path d="M2470 3813 c-14 -3 -29 -9 -35 -15 -13 -12 46 1 60 13 5 5 7 8 5 8
-3 -1 -16 -4 -30 -6z"/>
<path d="M2140 3790 c8 -5 24 -9 35 -9 l20 0 -20 9 c-11 5 -27 9 -35 9 -13 1
-13 0 0 -9z"/>
<path d="M2460 3780 c-11 -8 -7 -9 15 -4 37 8 45 14 19 14 -10 0 -26 -5 -34
-10z"/>
<path d="M2111 3776 c11 -12 69 -25 69 -15 0 5 -9 9 -19 9 -11 0 -28 3 -38 7
-10 3 -15 3 -12 -1z"/>
<path d="M2480 3760 c-20 -6 -21 -8 -5 -8 11 0 29 3 40 8 25 11 -1 11 -35 0z"/>
<path d="M2105 3749 c7 -10 55 -18 55 -9 0 4 -13 10 -29 12 -17 2 -28 1 -26
-3z"/>
<path d="M2500 3740 c-21 -7 -21 -8 -5 -9 11 0 27 4 35 9 18 11 5 11 -30 0z"/>
<path d="M2090 3729 c0 -5 6 -9 14 -9 8 0 22 -3 32 -7 11 -4 15 -3 11 4 -8 13
-57 23 -57 12z"/>
<path d="M2525 3722 c-11 -2 -24 -8 -30 -14 -9 -9 43 -1 54 8 8 7 -4 10 -24 6z"/>
<path d="M2090 3700 c34 -11 60 -11 35 0 -11 5 -29 8 -40 8 -16 0 -15 -2 5 -8z"/>
<path d="M2510 3690 c-11 -8 -7 -9 15 -4 37 8 45 14 19 14 -10 0 -26 -5 -34
-10z"/>
<path d="M2070 3680 c8 -5 26 -9 40 -9 l25 1 -25 8 c-14 4 -32 8 -40 9 -13 1
-13 0 0 -9z"/>
<path d="M2530 3670 l-25 -8 25 -1 c14 0 32 4 40 9 13 9 13 10 0 9 -8 -1 -26
-5 -40 -9z"/>
<path d="M2075 3656 c17 -8 32 -12 34 -10 7 6 -2 11 -34 17 l-30 6 30 -13z"/>
<path d="M2553 3653 c-13 -2 -23 -8 -23 -12 0 -11 49 -1 56 10 3 5 2 8 -3 8
-4 -1 -18 -4 -30 -6z"/>
<path d="M2040 3639 c0 -5 6 -9 14 -9 8 0 22 -3 32 -7 11 -4 15 -3 11 4 -8 13
-57 23 -57 12z"/>
<path d="M2575 3633 c-36 -9 -36 -19 0 -15 19 2 35 8 35 13 0 9 -3 10 -35 2z"/>
<path d="M2031 3616 c2 -2 18 -6 34 -10 22 -5 26 -4 15 4 -14 9 -59 15 -49 6z"/>
<path d="M2560 3600 c-13 -9 -13 -10 0 -9 8 1 26 5 40 9 l25 8 -25 1 c-14 0
-32 -4 -40 -9z"/>
<path d="M2025 3590 c11 -5 29 -9 40 -9 l20 0 -20 9 c-11 5 -29 9 -40 9 l-20
0 20 -9z"/>
<path d="M2590 3580 c-21 -7 -21 -8 -5 -9 11 0 27 4 35 9 18 11 5 11 -30 0z"/>
<path d="M2010 3570 c8 -5 24 -10 34 -10 26 0 18 6 -19 14 -22 5 -26 4 -15 -4z"/>
<path d="M2603 3563 c-13 -2 -23 -8 -23 -13 0 -5 14 -5 31 0 55 16 50 24 -8
13z"/>
<path d="M1990 3550 c8 -5 24 -10 34 -10 26 0 18 6 -19 14 -22 5 -26 4 -15 -4z"/>
<path d="M1970 3530 c0 -5 6 -10 13 -10 6 0 23 -3 37 -6 17 -5 22 -3 15 3 -15
15 -65 25 -65 13z"/>
<path d="M2595 3530 c-4 -7 3 -8 22 -4 38 9 42 14 10 14 -14 0 -29 -5 -32 -10z"/>
<path d="M2620 3510 c-13 -9 -13 -10 0 -9 8 0 24 4 35 9 l20 9 -20 0 c-11 0
-27 -4 -35 -9z"/>
<path d="M2224 3358 l-9 -103 -59 -7 c-33 -4 -61 -7 -62 -5 -2 1 -4 47 -6 101
-2 69 -6 100 -15 103 -7 3 -42 0 -77 -7 l-64 -12 -10 -56 c-6 -32 -14 -79 -18
-107 -3 -27 -17 -120 -30 -205 -31 -199 -31 -198 4 -202 19 -2 27 -9 27 -23 0
-17 9 -21 61 -28 47 -5 68 -4 90 8 l29 15 -34 0 c-38 0 -37 9 0 15 96 14 135
18 217 21 54 1 90 -1 87 -7 -4 -5 -32 -9 -64 -9 -111 0 -218 -28 -240 -62 -9
-14 -171 -655 -196 -775 -6 -31 -9 -33 -87 -50 l-81 -17 -79 -105 c-74 -99
-82 -106 -121 -113 -23 -4 -80 -14 -127 -22 -47 -9 -97 -16 -112 -16 -16 0
-28 -4 -28 -9 0 -5 471 -9 1093 -9 697 0 1078 3 1052 9 -22 5 -93 20 -157 32
l-117 22 -78 105 -78 104 -75 18 c-41 10 -77 22 -81 26 -4 4 -41 158 -84 342
-42 184 -83 357 -91 384 -23 82 -22 84 50 91 56 6 65 10 68 29 2 15 11 22 31
24 27 3 28 6 23 40 -3 20 -15 109 -27 197 -47 354 -41 328 -69 335 -14 4 -48
10 -76 14 l-51 6 -7 -31 c-3 -17 -6 -62 -6 -100 l0 -69 -64 0 -64 0 -7 105 -7
105 -83 0 -83 0 -8 -102z m26 -178 c0 -6 -12 -11 -27 -11 -16 -1 -52 -3 -80
-5 -29 -2 -53 0 -53 6 0 5 26 10 57 12 31 2 67 4 80 5 13 2 23 -2 23 -7z m135
0 c3 -5 1 -10 -4 -10 -6 0 -11 5 -11 10 0 6 2 10 4 10 3 0 8 -4 11 -10z m75
-9 c0 -4 -13 -6 -30 -3 -16 2 -30 7 -30 11 0 4 14 6 30 3 17 -2 30 -7 30 -11z
m30 -2 c0 -6 -4 -7 -10 -4 -5 3 -10 11 -10 16 0 6 5 7 10 4 6 -3 10 -11 10
-16z m30 0 c0 -6 -4 -7 -10 -4 -5 3 -10 11 -10 16 0 6 5 7 10 4 6 -3 10 -11
10 -16z m-127 -267 c16 -17 14 -18 -37 -18 -37 1 -52 5 -49 13 3 6 17 14 31
16 15 2 30 5 33 6 3 0 13 -7 22 -17z m-105 3 c-2 -3 -23 -6 -46 -7 -23 -1 -39
-5 -36 -10 3 -4 -2 -5 -10 -2 -33 13 -14 24 41 24 31 0 54 -2 51 -5z m146 -11
c3 -8 2 -12 -4 -9 -6 3 -10 10 -10 16 0 14 7 11 14 -7z m-354 -24 c-20 -13
-60 -13 -60 0 0 6 17 10 38 10 27 0 33 -3 22 -10z m94 -57 c-5 -5 -12 -12 -15
-16 -3 -5 -9 -2 -12 7 -5 12 0 16 15 16 12 0 17 -3 12 -7z m-40 -19 c3 -8 2
-12 -4 -9 -6 3 -10 10 -10 16 0 14 7 11 14 -7z m96 -508 c0 -8 -6 -28 -13 -45
-11 -26 -16 -30 -25 -18 -7 8 -10 16 -7 19 3 2 -2 5 -10 5 -21 0 -19 -7 10
-37 l25 -26 -46 1 c-25 0 -47 -2 -50 -6 -5 -9 25 -21 37 -14 5 4 6 -1 3 -9 -4
-10 3 -15 23 -18 33 -4 41 -30 23 -83 l-12 -35 -94 0 c-56 0 -94 -4 -94 -10 0
-14 -56 -12 -67 3 -12 16 -15 59 -3 52 5 -3 19 -1 30 5 12 6 40 13 63 15 81 7
107 12 115 20 4 4 -21 5 -55 2 -70 -7 -70 -10 0 63 16 16 26 34 23 39 -4 5 -2
12 4 16 5 3 10 19 10 35 0 26 4 29 38 32 20 2 45 4 55 5 9 1 17 -4 17 -11z
m53 -103 c20 -17 20 -17 13 2 -6 16 -5 18 5 8 21 -21 -6 -41 -28 -21 -10 8
-25 13 -33 11 -13 -4 -13 -3 0 6 20 14 20 14 43 -6z m271 -25 c-3 -4 -1 -8 5
-8 5 0 12 4 16 10 7 11 35 2 35 -11 0 -10 -50 -12 -74 -3 -22 8 -20 20 3 20
11 0 17 -4 15 -8z m-283 -164 c11 -13 11 -15 -2 -14 -35 5 -80 -1 -74 -10 3
-5 21 -8 40 -5 19 2 37 -1 41 -6 10 -17 -1 -20 -30 -10 -27 11 -34 3 -14 -17
9 -9 9 -12 -2 -13 -8 0 -26 -2 -39 -3 -15 -2 -34 6 -48 20 -22 22 -23 22 -36
4 -11 -16 -33 -23 -99 -29 -4 -1 -10 -18 -14 -38 -3 -21 -12 -62 -19 -92 l-14
-53 35 4 c19 2 34 0 34 -4 0 -13 -75 -9 -89 5 -9 8 -12 8 -7 0 4 -8 -36 -11
-156 -12 -114 0 -156 3 -139 10 13 5 36 8 51 7 16 -1 37 5 48 15 14 13 21 14
30 5 9 -9 12 -7 12 10 0 13 7 34 16 47 9 14 12 25 8 25 -5 0 -4 4 1 8 19 12
55 69 55 85 0 27 79 49 190 54 85 4 200 16 206 22 1 0 7 -6 15 -15z m-206
-264 c3 -5 1 -10 -4 -10 -6 0 -11 5 -11 10 0 6 2 10 4 10 3 0 8 -4 11 -10z"/>
<path d="M2160 2205 c7 -9 15 -13 17 -11 7 7 -7 26 -19 26 -6 0 -6 -6 2 -15z"/>
<path d="M1935 2030 c3 -5 8 -10 11 -10 2 0 4 5 4 10 0 6 -5 10 -11 10 -5 0
-7 -4 -4 -10z"/>
<path d="M2152 1948 c2 -6 10 -14 18 -16 7 -3 10 0 6 6 -3 6 0 13 6 15 7 3 3
6 -10 6 -14 1 -22 -4 -20 -11z"/>
<path d="M1611 2912 c-10 -19 -9 -22 7 -22 10 0 23 -5 30 -12 9 -9 12 -9 12 0
0 7 -5 12 -10 12 -6 0 -14 10 -19 22 l-8 22 -12 -22z"/>
<path d="M2994 2905 c-18 -15 -18 -16 6 -10 21 5 22 4 8 -5 -10 -6 -18 -16
-18 -23 0 -6 10 -1 22 11 28 27 13 51 -18 27z"/>
<path d="M3021 2861 c-21 -16 -22 -20 -10 -39 16 -26 34 -28 43 -6 3 9 11 12
18 8 10 -5 9 -3 0 7 -11 12 -15 11 -27 -5 -13 -17 -15 -17 -21 -3 -8 21 4 40
22 33 8 -3 11 0 7 10 -6 17 -3 17 -32 -5z"/>
<path d="M1586 2863 c-4 -4 3 -16 16 -26 l23 -19 -27 5 c-32 5 -34 -1 -12 -29
12 -15 14 -15 11 -2 -4 10 1 18 15 21 14 4 19 11 15 21 -4 11 -1 16 11 17 14
0 14 2 -3 9 -26 11 -40 12 -49 3z"/>
<path d="M3054 2789 c-19 -22 -19 -22 3 -11 17 9 22 9 27 -3 3 -8 -2 -19 -12
-24 -27 -15 -8 -23 23 -9 24 11 25 13 10 24 -9 7 -16 15 -16 18 4 33 -9 34
-35 5z"/>
<path d="M1544 2773 c5 -9 1 -13 -11 -14 -10 0 -5 -4 11 -10 38 -11 41 -7 14
17 -12 10 -18 13 -14 7z"/>
<path d="M1518 2728 c18 -18 15 -28 -10 -28 -21 0 -21 0 -2 -15 10 -8 24 -14
29 -15 6 0 3 5 -5 10 -13 8 -12 10 3 10 10 0 15 5 12 10 -3 6 0 10 7 10 8 1 6
6 -6 15 -24 18 -45 20 -28 3z"/>
<path d="M3096 2724 c-8 -8 -13 -21 -10 -29 9 -22 23 -18 17 5 -7 26 18 27 34
0 11 -16 9 -22 -10 -36 -19 -14 -19 -16 -2 -9 11 4 26 8 33 8 16 0 15 3 -5 38
-21 35 -38 42 -57 23z"/>
<path d="M1460 2649 c0 -14 41 -32 51 -22 5 5 -4 14 -21 20 -17 6 -30 7 -30 2z"/>
<path d="M3153 2637 c-25 -11 -29 -22 -13 -32 6 -3 10 -2 10 3 0 5 10 13 22
19 12 5 18 12 12 15 -5 3 -19 1 -31 -5z"/>
<path d="M1436 2613 c-10 -24 20 -51 41 -37 9 6 19 17 22 25 4 12 2 12 -12 0
-23 -18 -54 -7 -37 14 7 9 8 15 2 15 -5 0 -13 -8 -16 -17z"/>
<path d="M3172 2601 l-23 -17 20 -18 c17 -15 23 -16 36 -6 35 29 3 69 -33 41z
m28 -16 c0 -8 -7 -15 -15 -15 -16 0 -20 12 -8 23 11 12 23 8 23 -8z"/>
<path d="M1434 2566 c11 -9 24 -16 30 -16 12 0 7 5 -24 19 -24 11 -24 11 -6
-3z"/>
<path d="M1386 2525 c-16 -28 -17 -37 -6 -50 11 -13 9 -15 -11 -15 -18 0 -20
-3 -11 -12 7 -7 12 -18 12 -26 0 -12 -3 -12 -15 -2 -17 14 -39 4 -31 -16 3 -8
-1 -14 -9 -14 -8 0 -15 -6 -15 -13 0 -13 39 -41 47 -34 3 3 -5 11 -17 17 -18
10 -20 14 -9 21 8 5 22 6 33 3 12 -4 16 -2 12 5 -4 6 0 14 9 17 9 4 13 13 10
24 -4 11 3 23 20 34 14 9 25 22 24 29 0 9 -2 9 -6 0 -6 -17 -43 -16 -43 1 0
22 27 38 52 31 13 -4 21 -6 18 -4 -3 2 -14 12 -25 21 -20 17 -21 16 -39 -17z"/>
<path d="M3213 2533 c-16 -6 -17 -29 -2 -38 10 -7 38 21 39 38 0 8 -18 8 -37
0z m22 -13 c-3 -5 -12 -10 -18 -10 -7 0 -6 4 3 10 19 12 23 12 15 0z"/>
<path d="M3236 2483 c-12 -16 -14 -24 -6 -21 16 5 46 48 34 48 -5 0 -18 -12
-28 -27z"/>
<path d="M3250 2430 c0 -5 4 -10 9 -10 5 0 12 -13 16 -29 l6 -29 24 22 c25 22
26 37 0 16 -19 -15 -34 -5 -17 12 19 19 14 28 -13 28 -14 0 -25 -4 -25 -10z"/>
<path d="M3310 2355 c-19 -23 -8 -25 14 -4 11 11 15 19 9 19 -6 0 -16 -7 -23
-15z"/>
<path d="M1263 2315 c-3 -9 2 -22 13 -30 16 -12 21 -12 33 0 7 7 11 21 8 29
-8 21 -46 21 -54 1z m45 -13 c3 -9 -2 -13 -14 -10 -9 1 -19 9 -22 16 -3 9 2
13 14 10 9 -1 19 -9 22 -16z"/>
<path d="M3348 2312 c-20 -4 -22 -11 -9 -31 7 -11 11 -9 21 9 13 25 12 28 -12
22z"/>
<path d="M3365 2270 c-10 -11 -13 -20 -8 -20 13 0 38 29 31 35 -3 3 -13 -4
-23 -15z"/>
<path d="M1250 2270 c12 -8 11 -11 -9 -16 l-24 -7 24 -19 24 -20 -27 6 c-16 4
-28 3 -28 -1 1 -12 26 -43 35 -43 4 0 2 7 -5 15 -10 12 -10 15 3 15 22 0 32
20 16 31 -10 6 -8 10 11 17 l24 9 -21 12 c-26 14 -44 15 -23 1z"/>
<path d="M3377 2246 c-12 -9 -14 -16 -8 -21 6 -3 11 -1 11 5 0 6 5 8 10 5 6
-3 10 -1 10 5 0 6 5 8 10 5 6 -3 10 -1 10 4 0 15 -21 13 -43 -3z"/>
<path d="M3400 2214 c-14 -8 -17 -13 -7 -10 13 4 17 0 17 -19 0 -23 2 -24 20
-13 11 7 20 17 20 22 0 4 -7 3 -16 -5 -13 -11 -14 -9 -9 14 8 31 8 31 -25 11z"/>
<path d="M1172 2158 c8 -23 36 -34 50 -19 11 12 10 13 -4 8 -10 -4 -18 -2 -18
2 0 5 -7 12 -16 15 -10 4 -14 1 -12 -6z"/>
<path d="M3445 2139 c-16 -4 -22 -7 -11 -8 11 -1 16 -6 13 -14 -7 -19 8 -43
17 -28 4 6 2 11 -5 11 -7 0 -5 8 6 20 22 25 19 28 -20 19z"/>
<path d="M1150 2127 c0 -12 39 -42 46 -34 2 2 -7 13 -21 25 -15 13 -25 17 -25
9z"/>
<path d="M3480 2096 c0 -8 -3 -21 -6 -30 -8 -20 7 -20 32 0 17 14 17 15 1 10
-15 -5 -17 -2 -12 14 4 11 2 20 -4 20 -6 0 -11 -6 -11 -14z"/>
<path d="M1152 2084 c10 -10 20 -15 24 -12 3 4 -5 12 -18 18 -22 12 -22 12 -6
-6z"/>
<path d="M1120 2061 c0 -9 23 -21 41 -21 5 0 9 5 9 12 0 6 -3 8 -6 5 -4 -3
-15 -2 -25 4 -11 6 -19 6 -19 0z"/>
<path d="M3502 2044 c-18 -13 -21 -19 -11 -30 25 -31 67 -6 53 31 -8 19 -14
19 -42 -1z m32 -19 c-6 -16 -34 -21 -34 -7 0 13 11 22 26 22 8 0 11 -6 8 -15z"/>
<path d="M1092 2014 c-8 -9 -5 -14 15 -19 31 -8 34 -4 13 16 -13 12 -19 13
-28 3z"/>
<path d="M3546 1974 c-11 -7 -18 -16 -15 -18 2 -2 13 2 23 10 11 7 18 16 15
18 -2 2 -13 -2 -23 -10z"/>
<path d="M1080 1965 c10 -13 9 -15 -10 -15 -19 0 -20 -2 -10 -15 7 -8 17 -15
23 -15 6 0 7 3 4 6 -4 4 2 15 13 24 18 16 18 18 4 24 -27 11 -37 7 -24 -9z"/>
<path d="M3554 1945 c-18 -14 -18 -15 0 -9 15 6 17 3 11 -14 -8 -26 4 -28 31
-6 17 14 17 15 1 10 -15 -5 -17 -2 -12 14 8 24 -4 26 -31 5z"/>
<path d="M1030 1907 c0 -9 -3 -17 -8 -17 -4 0 -13 -9 -19 -19 -10 -16 -9 -18
8 -14 13 4 19 0 19 -10 0 -20 -16 -31 -25 -17 -4 6 -11 5 -19 -2 -11 -10 -9
-16 10 -30 31 -25 45 -22 14 3 -22 18 -23 20 -4 14 13 -3 26 1 34 10 11 13 9
19 -6 37 -19 21 -19 21 11 14 l29 -7 -19 23 c-11 13 -21 25 -22 27 -2 2 -3 -3
-3 -12z"/>
<path d="M3580 1870 c0 -5 7 -10 16 -10 9 0 12 -5 8 -12 -4 -7 2 -4 14 6 28
25 28 26 -8 26 -16 0 -30 -4 -30 -10z"/>
<path d="M3627 1836 c-15 -11 -15 -17 -4 -38 l12 -24 25 23 c13 13 20 23 14
23 -5 0 -15 -5 -21 -11 -6 -6 -17 -8 -23 -4 -9 6 -6 13 11 26 13 10 20 19 14
18 -5 0 -18 -6 -28 -13z"/>
<path d="M969 1787 c12 -15 11 -17 -8 -17 -11 0 -21 -5 -21 -11 0 -6 9 -8 23
-4 36 11 41 22 16 36 -22 11 -23 11 -10 -4z"/>
<path d="M3686 1749 c-24 -23 -19 -30 11 -14 12 6 19 16 15 22 -5 6 -14 3 -26
-8z"/>
<path d="M965 1740 c3 -5 11 -10 16 -10 6 0 7 5 4 10 -3 6 -11 10 -16 10 -6 0
-7 -4 -4 -10z"/>
<path d="M920 1730 c0 -9 31 -30 44 -30 16 0 3 18 -19 28 -14 7 -25 8 -25 2z"/>
<path d="M3700 1710 c-14 -11 -20 -20 -15 -19 13 0 50 28 44 33 -2 3 -15 -4
-29 -14z"/>
<path d="M3714 1684 c-10 -8 -13 -12 -5 -8 11 5 13 3 8 -12 -7 -18 -7 -18 8 0
14 18 20 36 12 36 -2 0 -12 -7 -23 -16z"/>
<path d="M904 1675 c11 -8 25 -15 30 -15 6 0 2 7 -8 15 -11 8 -25 15 -30 15
-6 0 -2 -7 8 -15z"/>
<path d="M876 1648 c4 -12 1 -18 -7 -19 -8 0 -3 -5 10 -10 32 -13 33 -9 10 21
-11 15 -17 18 -13 8z"/>
<path d="M3730 1645 c-7 -8 -8 -15 -2 -15 5 0 15 7 22 15 7 8 8 15 2 15 -5 0
-15 -7 -22 -15z"/>
<path d="M3754 1625 c-26 -18 -15 -26 15 -11 13 7 19 16 14 19 -6 4 -19 0 -29
-8z"/>
<path d="M1228 1611 c15 -9 21 -189 8 -210 -5 -7 3 -11 21 -11 27 0 28 2 25
41 -4 42 6 63 23 51 6 -4 25 -26 44 -49 31 -41 36 -43 84 -43 40 0 48 3 39 12
-7 7 -12 34 -12 60 l0 48 61 0 61 0 -4 -60 c-3 -58 -2 -60 22 -60 l25 0 0 114
0 115 -25 -1 c-24 -1 -25 -4 -22 -49 l4 -49 -61 0 -61 0 0 38 c0 21 5 43 10
48 8 8 -1 11 -26 12 -29 1 -35 -1 -26 -10 14 -14 17 -194 4 -202 -5 -3 -26 15
-46 40 -34 41 -37 47 -23 62 26 30 29 58 9 82 -15 19 -31 24 -83 27 -38 2 -59
0 -51 -6z m101 -25 c7 -8 11 -30 9 -48 -2 -28 -7 -34 -30 -36 -27 -3 -28 -2
-28 47 0 43 3 51 19 51 10 0 24 -6 30 -14z"/>
<path d="M1694 1601 c-38 -23 -59 -77 -50 -126 14 -72 109 -110 182 -74 48 24
73 120 42 168 -30 49 -119 65 -174 32z m105 -7 c52 -37 61 -124 18 -171 -29
-32 -72 -30 -108 6 -24 25 -29 37 -29 78 1 53 14 77 51 92 34 14 42 13 68 -5z"/>
<path d="M1901 1584 c11 -50 11 -121 0 -160 l-9 -31 53 -7 c72 -8 123 10 152
53 39 58 25 129 -31 158 -17 9 -63 18 -103 21 l-71 5 9 -39z m128 2 c86 -45
54 -186 -42 -186 -43 0 -47 9 -47 116 l0 84 30 0 c17 0 43 -6 59 -14z"/>
<path d="M2129 1606 c8 -10 11 -48 9 -116 l-3 -101 75 0 c41 0 87 -1 103 -1
15 -1 36 7 47 17 33 30 25 66 -25 115 -50 49 -51 52 -29 74 20 20 29 20 49 0
18 -19 30 -13 22 11 -9 23 -72 20 -98 -6 -26 -26 -18 -52 33 -106 33 -34 39
-46 34 -67 -8 -33 -48 -35 -70 -5 l-14 21 -18 -21 c-28 -32 -60 -28 -68 10
-11 56 -8 69 17 69 13 0 28 -5 35 -12 9 -9 12 -7 12 10 0 18 -6 22 -35 22 -33
0 -35 2 -35 35 0 40 21 55 50 37 19 -12 30 -6 30 15 0 9 -18 13 -66 13 -57 0
-65 -2 -55 -14z"/>
<path d="M2458 1608 c16 -16 16 -190 0 -206 -9 -9 -3 -12 28 -11 21 0 33 3 27
6 -16 6 -18 194 -3 209 8 8 -1 11 -26 12 -29 1 -35 -1 -26 -10z"/>
<path d="M2563 1605 c-35 -25 -28 -57 22 -108 25 -26 45 -52 45 -60 0 -39 -65
-52 -79 -14 -8 19 -10 20 -16 5 -11 -27 3 -38 50 -38 36 0 48 5 61 25 21 32
11 61 -38 107 -42 39 -46 63 -15 82 15 9 22 6 39 -14 l20 -25 -3 25 c-3 19
-11 26 -34 28 -16 1 -40 -4 -52 -13z"/>
<path d="M2680 1535 c3 -46 2 -98 -1 -115 l-6 -30 79 0 c48 0 77 4 73 10 -10
17 23 80 42 80 28 0 39 -12 52 -52 12 -37 13 -38 64 -38 29 0 47 4 41 8 -12 7
-26 152 -15 152 3 0 40 -37 82 -82 42 -46 81 -79 85 -75 5 5 11 56 12 113 3
91 6 105 20 102 15 -3 17 -19 17 -111 l0 -107 68 0 c107 0 147 33 147 120 0
50 -32 88 -85 100 -62 15 -222 13 -207 -2 7 -7 12 -42 12 -88 l-1 -75 -82 88
c-45 48 -85 87 -89 87 -5 0 -8 -47 -8 -105 0 -58 -4 -105 -8 -105 -4 0 -26 47
-47 105 -22 58 -44 104 -50 102 -5 -2 -24 -46 -43 -98 -38 -109 -50 -124 -86
-115 -26 6 -26 8 -26 99 0 59 4 97 12 105 9 9 4 12 -22 12 l-35 0 5 -85z m689
39 c28 -23 31 -32 31 -79 0 -46 -4 -56 -27 -75 -19 -14 -38 -20 -62 -18 l-36
3 -3 98 -3 97 35 0 c22 0 45 -9 65 -26z m-479 -66 c0 -11 -8 -18 -20 -18 -23
0 -23 0 -9 37 8 22 12 24 19 13 6 -8 10 -23 10 -32z"/>
<path d="M850 1592 c0 -4 6 -14 13 -21 10 -11 7 -12 -18 -7 -20 5 -27 4 -20
-2 19 -19 50 -18 50 1 0 10 7 22 15 27 12 8 9 10 -12 10 -16 0 -28 -4 -28 -8z"/>
<path d="M3776 1584 c-3 -9 -6 -20 -6 -25 0 -12 47 -11 55 1 4 7 -2 9 -19 4
-30 -7 -33 -2 -10 20 13 14 13 16 1 16 -8 0 -18 -7 -21 -16z"/>
<path d="M941 1526 c-12 -18 -21 -36 -21 -40 0 -3 22 -6 49 -6 l49 0 -21 40
c-12 22 -25 40 -29 40 -3 0 -16 -15 -27 -34z"/>
<path d="M3642 1520 l-23 -40 51 0 c27 0 50 2 50 4 0 10 -42 76 -48 76 -4 0
-17 -18 -30 -40z"/>
<path d="M810 1530 c0 -9 23 -30 33 -30 4 0 5 5 2 10 -3 6 -1 10 6 10 7 0 9 3
5 7 -8 9 -46 12 -46 3z"/>
<path d="M3785 1530 c-4 -7 3 -8 22 -4 38 9 42 14 10 14 -14 0 -29 -5 -32 -10z"/>
<path d="M3805 1510 c-4 -7 3 -8 22 -4 38 9 42 14 10 14 -14 0 -29 -5 -32 -10z"/>
<path d="M3825 1490 l-20 -9 20 0 c11 0 27 4 35 9 13 9 13 10 0 9 -8 0 -24 -4
-35 -9z"/>
<path d="M727 1413 c-20 -20 13 -23 218 -23 193 0 225 2 225 15 0 13 -31 15
-218 15 -120 0 -222 -3 -225 -7z"/>
<path d="M3470 1405 c0 -12 35 -15 221 -17 121 -2 223 0 226 5 14 23 -22 27
-228 27 -185 0 -219 -2 -219 -15z"/>
</g>
</svg>
